<svg width="215" height="41" viewBox="0 0 215 41" fill="none" xmlns="http://www.w3.org/2000/svg">
<path opacity="0.5" d="M40.0652 1.75671L30.2601 36.4917C30.2103 36.6493 30.0109 36.6967 29.8945 36.5863L23.3301 30.3583L28.2493 12.9514C28.2991 12.7937 28.1496 12.6518 27.9834 12.6991L9.63621 17.3662L3.10503 11.1697C2.98869 11.0593 3.03855 10.8701 3.20474 10.8228L39.7993 1.50444C39.9655 1.47291 40.1151 1.61481 40.0652 1.75671Z" fill="#F97316"/>
<path opacity="0.5" d="M23.3297 30.358L20.8037 39.3452C20.7538 39.5029 20.5544 39.5502 20.4381 39.4398L0.0634003 20.1251C-0.0529313 20.0147 -0.00307517 19.8255 0.163113 19.7782L9.63583 17.3658L23.3297 30.358Z" fill="#DC2626"/>
<path d="M28.2484 12.9511L23.3293 30.358L9.63538 17.3659L27.9825 12.6988C28.1487 12.6515 28.2983 12.7934 28.2484 12.9511Z" fill="#DC2626"/>
<path d="M68.2338 22.966H71.9692C71.8942 24.1903 71.5569 25.2771 70.9573 26.2266C70.3659 27.176 69.5372 27.9173 68.4712 28.4503C67.4135 28.9833 66.1392 29.2499 64.6484 29.2499C63.4824 29.2499 62.4371 29.05 61.5127 28.6502C60.5882 28.2421 59.797 27.6591 59.139 26.9012C58.4894 26.1433 57.9939 25.2272 57.6524 24.1528C57.3109 23.0784 57.1402 21.8749 57.1402 20.5424V19.2806C57.1402 17.948 57.3151 16.7445 57.6649 15.6701C58.023 14.5874 58.531 13.6671 59.189 12.9092C59.8553 12.1513 60.6507 11.5683 61.5751 11.1602C62.4996 10.7521 63.5323 10.5481 64.6734 10.5481C66.1892 10.5481 67.4676 10.8229 68.5087 11.3726C69.5581 11.9223 70.3701 12.6802 70.9448 13.6463C71.5278 14.6124 71.8776 15.7118 71.9942 16.9444H68.2463C68.2047 16.2115 68.0589 15.591 67.8091 15.083C67.5592 14.5666 67.1803 14.1793 66.6722 13.9211C66.1725 13.6546 65.5062 13.5214 64.6734 13.5214C64.0487 13.5214 63.5032 13.638 63.0368 13.8712C62.5704 14.1044 62.179 14.4583 61.8625 14.9331C61.546 15.4078 61.3086 16.0075 61.1504 16.732C61.0005 17.4483 60.9255 18.2895 60.9255 19.2556V20.5424C60.9255 21.4835 60.9963 22.3122 61.1379 23.0284C61.2795 23.7364 61.496 24.336 61.7875 24.8274C62.0873 25.3104 62.4705 25.6769 62.9369 25.9268C63.4116 26.1683 63.9821 26.2891 64.6484 26.2891C65.4313 26.2891 66.0767 26.1641 66.5848 25.9143C67.0928 25.6644 67.4801 25.2938 67.7466 24.8024C68.0214 24.311 68.1838 23.6989 68.2338 22.966ZM73.6307 22.3788V22.1164C73.6307 21.1253 73.7723 20.2134 74.0555 19.3805C74.3386 18.5393 74.7509 17.8106 75.2923 17.1943C75.8336 16.578 76.4999 16.0991 77.2911 15.7576C78.0823 15.4078 78.9901 15.2329 80.0146 15.2329C81.039 15.2329 81.9509 15.4078 82.7505 15.7576C83.55 16.0991 84.2205 16.578 84.7618 17.1943C85.3115 17.8106 85.7279 18.5393 86.0111 19.3805C86.2943 20.2134 86.4359 21.1253 86.4359 22.1164V22.3788C86.4359 23.3616 86.2943 24.2735 86.0111 25.1147C85.7279 25.9476 85.3115 26.6763 84.7618 27.301C84.2205 27.9173 83.5542 28.3962 82.763 28.7377C81.9718 29.0791 81.064 29.2499 80.0395 29.2499C79.0151 29.2499 78.1032 29.0791 77.3036 28.7377C76.5124 28.3962 75.842 27.9173 75.2923 27.301C74.7509 26.6763 74.3386 25.9476 74.0555 25.1147C73.7723 24.2735 73.6307 23.3616 73.6307 22.3788ZM77.2287 22.1164V22.3788C77.2287 22.9451 77.2786 23.474 77.3786 23.9654C77.4785 24.4568 77.6368 24.8899 77.8533 25.2646C78.0782 25.6311 78.3697 25.9184 78.7278 26.1266C79.0859 26.3349 79.5232 26.439 80.0395 26.439C80.5393 26.439 80.9682 26.3349 81.3263 26.1266C81.6844 25.9184 81.9718 25.6311 82.1883 25.2646C82.4049 24.8899 82.5631 24.4568 82.663 23.9654C82.7713 23.474 82.8254 22.9451 82.8254 22.3788V22.1164C82.8254 21.5668 82.7713 21.0504 82.663 20.5673C82.5631 20.076 82.4007 19.6429 82.1758 19.2681C81.9593 18.885 81.6719 18.5851 81.3138 18.3686C80.9557 18.1521 80.5226 18.0438 80.0146 18.0438C79.5065 18.0438 79.0734 18.1521 78.7153 18.3686C78.3655 18.5851 78.0782 18.885 77.8533 19.2681C77.6368 19.6429 77.4785 20.076 77.3786 20.5673C77.2786 21.0504 77.2287 21.5668 77.2287 22.1164ZM96.63 26.0517V9.81101H100.253V29H96.9923L96.63 26.0517ZM88.0849 22.4038V22.1414C88.0849 21.1087 88.2015 20.1717 88.4347 19.3305C88.6679 18.481 89.0094 17.7523 89.4591 17.1443C89.9089 16.5363 90.4627 16.0658 91.1207 15.7326C91.7786 15.3995 92.5282 15.2329 93.3694 15.2329C94.1606 15.2329 94.8519 15.3995 95.4432 15.7326C96.0429 16.0658 96.5509 16.5405 96.9673 17.1568C97.3921 17.7648 97.7336 18.4852 97.9917 19.3181C98.2499 20.1426 98.4373 21.0462 98.5539 22.029V22.6037C98.4373 23.5448 98.2499 24.4193 97.9917 25.2272C97.7336 26.035 97.3921 26.743 96.9673 27.3509C96.5509 27.9506 96.0429 28.417 95.4432 28.7501C94.8436 29.0833 94.144 29.2499 93.3444 29.2499C92.5032 29.2499 91.7537 29.0791 91.0957 28.7377C90.4461 28.3962 89.8964 27.9173 89.4467 27.301C89.0052 26.6847 88.6679 25.9601 88.4347 25.1272C88.2015 24.2944 88.0849 23.3866 88.0849 22.4038ZM91.6829 22.1414V22.4038C91.6829 22.9618 91.7245 23.4823 91.8078 23.9654C91.8994 24.4484 92.0452 24.8774 92.245 25.2521C92.4533 25.6186 92.7198 25.9059 93.0446 26.1142C93.3777 26.314 93.7817 26.414 94.2564 26.414C94.8727 26.414 95.3807 26.2766 95.7805 26.0017C96.1803 25.7185 96.4843 25.3313 96.6925 24.8399C96.909 24.3485 97.034 23.7822 97.0673 23.1409V21.5043C97.0423 20.9796 96.9673 20.509 96.8424 20.0926C96.7258 19.6679 96.5509 19.3056 96.3177 19.0057C96.0928 18.7059 95.8097 18.4727 95.4682 18.3061C95.1351 18.1396 94.7394 18.0563 94.2814 18.0563C93.815 18.0563 93.4152 18.1645 93.0821 18.3811C92.7489 18.5893 92.4782 18.8766 92.27 19.2431C92.0701 19.6096 91.9202 20.0426 91.8203 20.5424C91.7287 21.0337 91.6829 21.5668 91.6829 22.1414ZM109.285 29.2499C108.236 29.2499 107.295 29.0833 106.462 28.7501C105.629 28.4087 104.921 27.9381 104.338 27.3385C103.763 26.7388 103.322 26.0434 103.014 25.2521C102.706 24.4526 102.552 23.6031 102.552 22.7036V22.2039C102.552 21.1795 102.697 20.2425 102.989 19.393C103.28 18.5435 103.697 17.8064 104.238 17.1818C104.788 16.5571 105.454 16.0782 106.237 15.7451C107.02 15.4036 107.903 15.2329 108.886 15.2329C109.843 15.2329 110.693 15.3911 111.434 15.7076C112.175 16.0241 112.796 16.4739 113.295 17.0569C113.804 17.6398 114.187 18.3394 114.445 19.1556C114.703 19.9635 114.832 20.863 114.832 21.8541V23.3532H104.088V20.9546H111.297V20.6798C111.297 20.1801 111.205 19.7345 111.022 19.343C110.847 18.9433 110.58 18.6268 110.222 18.3936C109.864 18.1604 109.406 18.0438 108.848 18.0438C108.373 18.0438 107.965 18.1479 107.624 18.3561C107.282 18.5643 107.003 18.8558 106.787 19.2306C106.578 19.6054 106.42 20.0468 106.312 20.5548C106.212 21.0546 106.162 21.6042 106.162 22.2039V22.7036C106.162 23.245 106.237 23.7447 106.387 24.2028C106.545 24.6608 106.766 25.0564 107.049 25.3896C107.341 25.7227 107.69 25.9809 108.098 26.1641C108.515 26.3474 108.985 26.439 109.51 26.439C110.16 26.439 110.764 26.314 111.322 26.0642C111.888 25.806 112.375 25.4187 112.783 24.9024L114.532 26.8013C114.249 27.2094 113.862 27.6008 113.37 27.9756C112.887 28.3504 112.304 28.6585 111.621 28.9001C110.938 29.1333 110.16 29.2499 109.285 29.2499ZM130.935 10.8104V29H127.2V10.8104H130.935ZM136.532 10.8104V13.7462H121.691V10.8104H136.532ZM141.954 9.81101V29H138.356V9.81101H141.954ZM141.442 21.7666H140.455C140.463 20.8255 140.588 19.9594 140.83 19.1681C141.071 18.3686 141.417 17.6773 141.867 17.0943C142.316 16.503 142.854 16.0449 143.478 15.7201C144.111 15.3953 144.811 15.2329 145.577 15.2329C146.243 15.2329 146.847 15.3287 147.388 15.5202C147.938 15.7035 148.409 16.0033 148.8 16.4197C149.2 16.8278 149.508 17.365 149.725 18.0313C149.941 18.6976 150.049 19.5054 150.049 20.4549V29H146.426V20.4299C146.426 19.8303 146.339 19.3597 146.164 19.0182C145.998 18.6684 145.752 18.4227 145.427 18.2811C145.111 18.1312 144.719 18.0563 144.253 18.0563C143.736 18.0563 143.295 18.1521 142.928 18.3436C142.57 18.5352 142.283 18.8017 142.066 19.1432C141.85 19.4763 141.692 19.8677 141.592 20.3175C141.492 20.7672 141.442 21.2503 141.442 21.7666ZM159.007 29.2499C157.957 29.2499 157.016 29.0833 156.183 28.7501C155.351 28.4087 154.643 27.9381 154.06 27.3385C153.485 26.7388 153.044 26.0434 152.735 25.2521C152.427 24.4526 152.273 23.6031 152.273 22.7036V22.2039C152.273 21.1795 152.419 20.2425 152.71 19.393C153.002 18.5435 153.418 17.8064 153.96 17.1818C154.509 16.5571 155.176 16.0782 155.959 15.7451C156.741 15.4036 157.624 15.2329 158.607 15.2329C159.565 15.2329 160.414 15.3911 161.156 15.7076C161.897 16.0241 162.517 16.4739 163.017 17.0569C163.525 17.6398 163.908 18.3394 164.166 19.1556C164.424 19.9635 164.554 20.863 164.554 21.8541V23.3532H153.81V20.9546H161.018V20.6798C161.018 20.1801 160.926 19.7345 160.743 19.343C160.568 18.9433 160.302 18.6268 159.944 18.3936C159.586 18.1604 159.128 18.0438 158.57 18.0438C158.095 18.0438 157.687 18.1479 157.345 18.3561C157.004 18.5643 156.725 18.8558 156.508 19.2306C156.3 19.6054 156.142 20.0468 156.033 20.5548C155.934 21.0546 155.884 21.6042 155.884 22.2039V22.7036C155.884 23.245 155.959 23.7447 156.108 24.2028C156.267 24.6608 156.487 25.0564 156.771 25.3896C157.062 25.7227 157.412 25.9809 157.82 26.1641C158.236 26.3474 158.707 26.439 159.232 26.439C159.881 26.439 160.485 26.314 161.043 26.0642C161.609 25.806 162.097 25.4187 162.505 24.9024L164.254 26.8013C163.971 27.2094 163.583 27.6008 163.092 27.9756C162.609 28.3504 162.026 28.6585 161.343 28.9001C160.66 29.1333 159.881 29.2499 159.007 29.2499ZM176.946 10.8104V29H173.199V10.8104H176.946ZM187.84 10.8104L180.632 19.7928L176.472 24.2652L175.797 20.7173L178.608 16.8695L183.243 10.8104H187.84ZM183.58 29L178.221 20.5923L180.994 18.2687L188.015 29H183.58ZM195.136 29.2499C194.087 29.2499 193.146 29.0833 192.313 28.7501C191.48 28.4087 190.772 27.9381 190.189 27.3385C189.614 26.7388 189.173 26.0434 188.865 25.2521C188.556 24.4526 188.402 23.6031 188.402 22.7036V22.2039C188.402 21.1795 188.548 20.2425 188.84 19.393C189.131 18.5435 189.548 17.8064 190.089 17.1818C190.639 16.5571 191.305 16.0782 192.088 15.7451C192.871 15.4036 193.753 15.2329 194.736 15.2329C195.694 15.2329 196.544 15.3911 197.285 15.7076C198.026 16.0241 198.647 16.4739 199.146 17.0569C199.654 17.6398 200.037 18.3394 200.296 19.1556C200.554 19.9635 200.683 20.863 200.683 21.8541V23.3532H189.939V20.9546H197.147V20.6798C197.147 20.1801 197.056 19.7345 196.873 19.343C196.698 18.9433 196.431 18.6268 196.073 18.3936C195.715 18.1604 195.257 18.0438 194.699 18.0438C194.224 18.0438 193.816 18.1479 193.474 18.3561C193.133 18.5643 192.854 18.8558 192.637 19.2306C192.429 19.6054 192.271 20.0468 192.163 20.5548C192.063 21.0546 192.013 21.6042 192.013 22.2039V22.7036C192.013 23.245 192.088 23.7447 192.238 24.2028C192.396 24.6608 192.617 25.0564 192.9 25.3896C193.191 25.7227 193.541 25.9809 193.949 26.1641C194.366 26.3474 194.836 26.439 195.361 26.439C196.011 26.439 196.614 26.314 197.172 26.0642C197.739 25.806 198.226 25.4187 198.634 24.9024L200.383 26.8013C200.1 27.2094 199.713 27.6008 199.221 27.9756C198.738 28.3504 198.155 28.6585 197.472 28.9001C196.789 29.1333 196.011 29.2499 195.136 29.2499ZM206.567 27.4759L210.152 15.4828H214.013L208.578 31.0363C208.462 31.3778 208.303 31.7443 208.104 32.1357C207.912 32.5271 207.65 32.8978 207.317 33.2476C206.992 33.6057 206.579 33.8972 206.08 34.1221C205.588 34.3469 204.985 34.4594 204.268 34.4594C203.927 34.4594 203.648 34.4385 203.431 34.3969C203.215 34.3553 202.957 34.297 202.657 34.222V31.586C202.748 31.586 202.844 31.586 202.944 31.586C203.044 31.5943 203.14 31.5985 203.231 31.5985C203.706 31.5985 204.093 31.5444 204.393 31.4361C204.693 31.3278 204.935 31.1613 205.118 30.9364C205.301 30.7198 205.447 30.4367 205.555 30.0869L206.567 27.4759ZM205.068 15.4828L208.004 25.2771L208.516 29.0874L206.067 29.3498L201.208 15.4828H205.068Z" fill="#FAFAFA"/>
</svg>
